<?xml version="1.0" encoding="UTF-8"?>
<svg xmlns="http://www.w3.org/2000/svg" xmlns:xlink="http://www.w3.org/1999/xlink" width="32pt" height="32pt" viewBox="0 0 32 32" version="1.1">
<g id="surface1">
<path style=" stroke:none;fill-rule:nonzero;fill:rgb(14.509804%,71.764706%,82.745098%);fill-opacity:1;" d="M 32 16 C 32 7.164062 24.835938 0 16 0 C 7.164062 0 0 7.164062 0 16 C 0 24.835938 7.164062 32 16 32 C 24.835938 32 32 24.835938 32 16 Z M 32 16 "/>
<path style=" stroke:none;fill-rule:nonzero;fill:rgb(85.098039%,85.882353%,85.882353%);fill-opacity:1;" d="M 21.144531 25.839844 C 21.144531 24.421875 18.84375 23.269531 16 23.269531 C 13.15625 23.269531 10.855469 24.421875 10.855469 25.839844 C 10.855469 27.261719 13.15625 28.414062 16 28.414062 C 18.84375 28.414062 21.144531 27.261719 21.144531 25.839844 Z M 21.144531 25.839844 "/>
<path style=" stroke:none;fill-rule:nonzero;fill:rgb(85.098039%,85.882353%,85.882353%);fill-opacity:1;" d="M 10.855469 6.160156 L 21.144531 6.160156 L 21.144531 25.886719 L 10.855469 25.886719 Z M 10.855469 6.160156 "/>
<path style=" stroke:none;fill-rule:nonzero;fill:rgb(95.686275%,95.686275%,93.72549%);fill-opacity:1;" d="M 11.296875 6.191406 L 20.703125 6.191406 L 20.703125 24.71875 L 11.296875 24.71875 Z M 11.296875 6.191406 "/>
<path style=" stroke:none;fill-rule:nonzero;fill:rgb(72.54902%,89.411765%,91.764706%);fill-opacity:1;" d="M 11.296875 15.296875 L 20.703125 15.296875 L 20.703125 24.71875 L 11.296875 24.71875 Z M 11.296875 15.296875 "/>
<path style=" stroke:none;fill-rule:nonzero;fill:rgb(61.176471%,78.823529%,82.745098%);fill-opacity:1;" d="M 11.296875 15.296875 L 16 15.296875 L 16 24.71875 L 11.296875 24.71875 Z M 11.296875 15.296875 "/>
<path style=" stroke:none;fill-rule:nonzero;fill:rgb(65.882353%,83.529412%,86.666667%);fill-opacity:1;" d="M 20.703125 15.375 C 20.703125 14.074219 18.597656 13.019531 16 13.019531 C 13.402344 13.019531 11.296875 14.074219 11.296875 15.375 C 11.296875 16.675781 13.402344 17.726562 16 17.726562 C 18.597656 17.726562 20.703125 16.675781 20.703125 15.375 Z M 20.703125 15.375 "/>
<path style=" stroke:none;fill-rule:nonzero;fill:rgb(76.078431%,93.333333%,94.901961%);fill-opacity:1;" d="M 20.703125 15.375 C 20.703125 16.671875 18.59375 17.726562 16 17.726562 L 16 13.027344 C 18.597656 13.027344 20.703125 14.078125 20.703125 15.375 Z M 20.703125 15.375 "/>
<path style=" stroke:none;fill-rule:nonzero;fill:rgb(85.098039%,85.882353%,85.882353%);fill-opacity:1;" d="M 21.144531 6.160156 C 21.144531 4.738281 18.84375 3.585938 16 3.585938 C 13.15625 3.585938 10.855469 4.738281 10.855469 6.160156 C 10.855469 7.578125 13.15625 8.730469 16 8.730469 C 18.84375 8.730469 21.144531 7.578125 21.144531 6.160156 Z M 21.144531 6.160156 "/>
<path style=" stroke:none;fill-rule:nonzero;fill:rgb(95.686275%,95.686275%,93.72549%);fill-opacity:1;" d="M 20.714844 6.160156 C 20.714844 4.984375 18.605469 4.03125 16 4.03125 C 13.394531 4.03125 11.285156 4.984375 11.285156 6.160156 C 11.285156 7.335938 13.394531 8.285156 16 8.285156 C 18.605469 8.285156 20.714844 7.335938 20.714844 6.160156 Z M 20.714844 6.160156 "/>
<path style=" stroke:none;fill-rule:nonzero;fill:rgb(93.72549%,93.72549%,90.980392%);fill-opacity:1;" d="M 16 8.28125 C 13.394531 8.28125 11.285156 7.324219 11.285156 6.152344 C 11.285156 4.980469 13.394531 4.023438 16 4.023438 Z M 16 8.28125 "/>
<path style=" stroke:none;fill-rule:nonzero;fill:rgb(72.54902%,89.411765%,91.764706%);fill-opacity:1;" d="M 20.703125 24.53125 C 20.703125 23.230469 18.597656 22.179688 16 22.179688 C 13.402344 22.179688 11.296875 23.230469 11.296875 24.53125 C 11.296875 25.832031 13.402344 26.886719 16 26.886719 C 18.597656 26.886719 20.703125 25.832031 20.703125 24.53125 Z M 20.703125 24.53125 "/>
<path style=" stroke:none;fill-rule:nonzero;fill:rgb(61.176471%,78.823529%,82.745098%);fill-opacity:1;" d="M 16 26.878906 C 13.402344 26.878906 11.296875 25.828125 11.296875 24.527344 C 11.296875 23.230469 13.40625 22.171875 16 22.171875 Z M 16 26.878906 "/>
</g>
</svg>
