<?xml version="1.0" encoding="iso-8859-1"?>
<!-- Generator: Adobe Illustrator 19.0.0, SVG Export Plug-In . SVG Version: 6.00 Build 0)  -->
<svg version="1.1" id="Layer_1" xmlns="http://www.w3.org/2000/svg" xmlns:xlink="http://www.w3.org/1999/xlink" x="0px" y="0px"
	 viewBox="0 0 511.6 511.6" style="enable-background:new 0 0 511.6 511.6;" xml:space="preserve" fill="#fff">
<g>
	<g>
		<path d="M501.3,363.487l-83.8-83.8c-15.4-15.4-39.4-15.4-54.8,0l-15.4,13.7c-6.8,6.8-12,17.1-12,25.7c0,4.9,1.6,9.8,3.2,14.7
			c0.1,0.4-0.1,0.7-0.5,0.7h-9.2c-0.2,0-0.4-0.1-0.6-0.2l-88.7-85.3l87.1-87.1c0.1-0.1,0.2-0.1,0.3-0.1h14.4c0.3,0,0.5,0.4,0.3,0.6
			c-4.9,6.7-8.1,15.1-8.1,25c0,10.3,3.4,20.5,10.3,27.4l15.4,17.1c6.8,6.8,17.1,12,27.4,12s18.8-3.4,27.4-10.3l83.8-83.8
			c6.8-6.8,12-17.1,12-27.4s-3.4-20.5-12-27.4l-80.4-80.4c-13.7-13.7-39.4-13.7-54.8,0l-15.4,15.4c-6.8,6.8-10.3,15.4-10.3,25.7
			c0,3.4,0,5.1,1.7,8.6h-32.5c-12,0-25.7,5.1-34.2,15.4l-102.5,102.4l-3.4-3.4c-8.6-8.6-20.5-18.8-34.2-18.8H29.1
			c-12,0-29.1,10.3-29.1,29.1v37.6c0,10.3,5.1,17.1,12,22.2c-6.8,5.1-12,13.7-12,22.2v34.2c0,18.8,17.1,29.1,32.5,30.8h100.9
			c12,0,25.7-5.1,34.2-15.4l3.4-3.4l102.7,102.7c10.3,10.3,24,10.3,34.2,10.3h39.4c-5.1,6.8-8.6,15.4-8.6,24
			c0,10.3,3.4,18.8,10.3,25.7l15.4,15.4c6.8,6.8,17.1,12,27.4,12s20.5-3.4,27.4-12l80.4-80.4c6.8-6.8,12-17.1,12-27.4
			C511.6,380.087,509.3,370.987,501.3,363.487z M34.2,196.687c0-2.4,1.9-4.3,4.3-4.3h95.7c0.6,0,1.3,0.2,1.7,0.7l11.6,10.1
			c0.7,0.6,0.8,1.7,0.1,2.4l-12.4,12.4c-3.4,3.4-8,5.3-12.7,5.2c-0.4,0-0.7,0-1,0h-83c-2.4,0-4.3-1.9-4.3-4.3V196.687z
			 M144.1,296.387c-0.3,0.3-0.5,0.6-0.7,0.9c-1.7,3.1-5.1,4.6-9.9,4.6H38.3c-2.2,0-4.1-1.8-4.1-4.1v-22.7c0-2.2,1.8-4.1,4.1-4.1
			h83.2c5.1,0,8.6-1.7,12-5.1l51.3-51.3l114.6-112.9c3.4-3.4,6.8-5.1,10.3-5.1l64.7,1c6.8,0,13.7-5.1,15.4-10.3
			c1.7-5.1,1.7-13.7-3.4-18.8l-10-9.6c-1.7-1.7-1.7-3.4-1.7-3.4c0-1.1,0.4-2.1,1.2-2.9l14.2-14.2c2.8-2.4,4.7-2.2,7.3,0.5l77,77
			c3,3,3,7.9-0.1,10.9l-80.9,79.3c-1.1,1.1-2.8,0.8-4,0.4c-0.7-0.2-1.3-0.6-1.8-1.2l-14.6-16.3c0,0-1.7-1.7-1.7-3.4
			c0-1.7,0-3.4,1.7-5.1l20.2-25.7c3.4-5.1,5.1-12,1.7-18.8c-3.4-6.8-8.6-10.3-15.4-10.3h-57.9c-5.1,0-8.6,1.7-12,5.1L144.1,296.387z
			 M474.7,396.987c-15.6,15.7-77.8,77.7-77.8,77.7c-1.7,1.7-5.1,1.7-6.8,0l-14.5-14.8c-2.2-2.5-2.1-6.2,0.2-8.5l17.1-20
			c3.4-3.4,5.1-10.3,5.1-13.8c0-10-8.1-18.2-18.2-18.2H308h-3.1c-4.6,0-9-1.8-12.2-5.1l-97.7-97.5l20.5-20.5l94.1,90.7
			c3.4,3.4,6.8,5.1,12,5.1h55.9c6.8,0,14-4.6,15.7-11.4s-0.3-12.3-5.4-17.4c0,0-9.8-11.3-15.3-17.6c-2-2.3-1.8-5.7,0.5-7.8l12-10.8
			c1.7-1.7,5.1-1.7,6.8,0c0,0,66.9,66.9,82.9,83C476.6,391.987,476.6,395.087,474.7,396.987z"/>
	</g>
</g>
<g>
</g>
<g>
</g>
<g>
</g>
<g>
</g>
<g>
</g>
<g>
</g>
<g>
</g>
<g>
</g>
<g>
</g>
<g>
</g>
<g>
</g>
<g>
</g>
<g>
</g>
<g>
</g>
<g>
</g>
</svg>
