<?xml version="1.0"?>
<svg xmlns="http://www.w3.org/2000/svg" xmlns:xlink="http://www.w3.org/1999/xlink" xmlns:svgjs="http://svgjs.com/svgjs" version="1.1" width="512" height="512" x="0" y="0" viewBox="0 0 511.998 511.998" style="enable-background:new 0 0 512 512" xml:space="preserve"><g>
<g xmlns="http://www.w3.org/2000/svg">
	<g>
		<path d="M472.747,192H320.853V41.813c0-22.186-17.067-40.96-39.253-40.96h-49.494c-22.187,0-40.96,18.773-40.96,40.96V192H40.96    C18.774,192,0,209.066,0,231.254v49.493c0,22.186,18.773,39.253,40.96,39.253h150.187v151.893    c0,22.186,18.774,39.253,40.96,39.253H281.6c22.186,0,39.253-17.067,39.253-39.253V320h151.893    c22.186,0,39.253-17.067,39.253-39.253v-49.493C512,209.066,494.933,192,472.747,192z M472.747,287.573h-168.96    c-10.24,0-17.067,6.827-17.067,17.067v168.96c0,3.413-3.413,5.12-5.12,5.12h-49.494c-3.413,0-6.827-3.413-6.827-5.12V304.64    c0-10.24-6.827-17.067-17.067-17.067H40.96c-3.413,0-6.827-3.413-6.827-5.12v-49.493c0-3.413,3.413-5.12,6.827-5.12h167.253    c10.24,0,17.067-6.827,17.067-17.067V41.813c0-3.413,3.413-6.827,6.827-6.827H281.6c3.413,0,5.12,3.413,5.12,6.827v167.253    c0,10.24,6.827,17.067,17.067,17.067h168.96c3.413,0,5.12,3.413,5.12,5.12l0.002,51.2    C477.867,285.867,474.453,287.573,472.747,287.573z" fill="#ffffff" data-original="#000000" style=""/>
	</g>
</g>
<g xmlns="http://www.w3.org/2000/svg">
</g>
<g xmlns="http://www.w3.org/2000/svg">
</g>
<g xmlns="http://www.w3.org/2000/svg">
</g>
<g xmlns="http://www.w3.org/2000/svg">
</g>
<g xmlns="http://www.w3.org/2000/svg">
</g>
<g xmlns="http://www.w3.org/2000/svg">
</g>
<g xmlns="http://www.w3.org/2000/svg">
</g>
<g xmlns="http://www.w3.org/2000/svg">
</g>
<g xmlns="http://www.w3.org/2000/svg">
</g>
<g xmlns="http://www.w3.org/2000/svg">
</g>
<g xmlns="http://www.w3.org/2000/svg">
</g>
<g xmlns="http://www.w3.org/2000/svg">
</g>
<g xmlns="http://www.w3.org/2000/svg">
</g>
<g xmlns="http://www.w3.org/2000/svg">
</g>
<g xmlns="http://www.w3.org/2000/svg">
</g>
</g></svg>
